<svg width="22" height="20" viewBox="0 0 22 20" fill="none" xmlns="http://www.w3.org/2000/svg">
<path d="M11.0014 8.35714C9.22684 8.35714 7.78711 9.79687 7.78711 11.5714C7.78711 13.346 9.22684 14.7857 11.0014 14.7857C12.7759 14.7857 14.2157 13.346 14.2157 11.5714C14.2157 9.79687 12.7759 8.35714 11.0014 8.35714ZM18.8585 3.71429H16.3585L15.7893 2.19643C15.5103 1.45982 14.6398 0.857141 13.8585 0.857141H8.14425C7.363 0.857141 6.49247 1.45982 6.21345 2.19643L5.64425 3.71429H3.14425C1.57059 3.71429 0.287109 4.99777 0.287109 6.57143V16.5714C0.287109 18.1451 1.57059 19.4286 3.14425 19.4286H18.8585C20.4322 19.4286 21.7157 18.1451 21.7157 16.5714V6.57143C21.7157 4.99777 20.4322 3.71429 18.8585 3.71429ZM11.0014 16.5714C8.2447 16.5714 6.0014 14.3281 6.0014 11.5714C6.0014 8.81473 8.2447 6.57143 11.0014 6.57143C13.7581 6.57143 16.0014 8.81473 16.0014 11.5714C16.0014 14.3281 13.7581 16.5714 11.0014 16.5714Z" fill="white"/>
</svg>
