<svg width="68" height="68" viewBox="0 0 68 68" fill="none" xmlns="http://www.w3.org/2000/svg">
<g filter="url(#filter0_d)">
<circle cx="34" cy="33" r="26" fill="white"/>
</g>
<path d="M38.1836 33.375H35.5469V41.25H32.0312V33.375H29.1836V30.1055H32.0312V27.6445C32.0312 26.707 32.207 25.9102 32.5586 25.2539C32.9102 24.5977 33.4023 24.1055 34.0352 23.7773C34.6914 23.4258 35.4414 23.25 36.2852 23.25C36.6602 23.25 37.0586 23.2734 37.4805 23.3203C37.9023 23.3438 38.2305 23.3789 38.4648 23.4258L38.8164 23.4609V26.2383H37.4102C36.7539 26.2383 36.2734 26.4141 35.9688 26.7656C35.6875 27.0938 35.5469 27.5039 35.5469 27.9961V30.1055H38.6758L38.1836 33.375Z" fill="#202944"/>
<defs>
<filter id="filter0_d" x="0" y="0" width="68" height="68" filterUnits="userSpaceOnUse" color-interpolation-filters="sRGB">
<feFlood flood-opacity="0" result="BackgroundImageFix"/>
<feColorMatrix in="SourceAlpha" type="matrix" values="0 0 0 0 0 0 0 0 0 0 0 0 0 0 0 0 0 0 127 0"/>
<feOffset dy="1"/>
<feGaussianBlur stdDeviation="4"/>
<feColorMatrix type="matrix" values="0 0 0 0 0 0 0 0 0 0 0 0 0 0 0 0 0 0 0.25 0"/>
<feBlend mode="normal" in2="BackgroundImageFix" result="effect1_dropShadow"/>
<feBlend mode="normal" in="SourceGraphic" in2="effect1_dropShadow" result="shape"/>
</filter>
</defs>
</svg>
