<svg width="14" height="14" viewBox="0 0 14 14" fill="none" xmlns="http://www.w3.org/2000/svg">
<path d="M1.69502 0.281012C1.29794 -0.102839 0.664862 -0.0921084 0.281012 0.304978C-0.102839 0.702064 -0.0921084 1.33514 0.304978 1.71899L1.69502 0.281012ZM12.305 13.319C12.7021 13.7028 13.3351 13.6921 13.719 13.295C14.1028 12.8979 14.0921 12.2649 13.695 11.881L12.305 13.319ZM0.304978 11.881C-0.0921084 12.2649 -0.102839 12.8979 0.281012 13.295C0.664862 13.6921 1.29794 13.7028 1.69502 13.319L0.304978 11.881ZM13.695 1.71899C14.0921 1.33514 14.1028 0.702064 13.719 0.304978C13.3351 -0.0921084 12.7021 -0.102839 12.305 0.281012L13.695 1.71899ZM0.304978 1.71899L12.305 13.319L13.695 11.881L1.69502 0.281012L0.304978 1.71899ZM1.69502 13.319L13.695 1.71899L12.305 0.281012L0.304978 11.881L1.69502 13.319Z" fill="#B1E4FF"/>
</svg>
