<svg width="14" height="14" xmlns="http://www.w3.org/2000/svg">

 <g>
  <title>background</title>
  <rect fill="none" id="canvas_background" height="402" width="582" y="-1" x="-1"/>
 </g>
 <g>
  <title>Layer 1</title>
  <path id="svg_1" fill="#202944" d="m1.69502,0.28101c-0.39708,-0.38385 -1.03016,-0.37312 -1.41401,0.02397c-0.38385,0.39708 -0.37312,1.03016 0.02397,1.41401l1.39004,-1.43798zm10.60998,13.03799c0.3971,0.3838 1.0301,0.3731 1.414,-0.024c0.3838,-0.3971 0.3731,-1.0301 -0.024,-1.414l-1.39,1.438zm-12.00002,-1.438c-0.39709,0.3839 -0.40782,1.0169 -0.02397,1.414c0.38385,0.3971 1.01693,0.4078 1.41401,0.024l-1.39004,-1.438zm13.39002,-10.16201c0.3971,-0.38385 0.4078,-1.01693 0.024,-1.41401c-0.3839,-0.39709 -1.0169,-0.40782 -1.414,-0.02397l1.39,1.43798zm-13.39002,0l12.00002,11.60001l1.39,-1.438l-11.99998,-11.59999l-1.39004,1.43798zm1.39004,11.60001l11.99998,-11.60001l-1.39,-1.43798l-12.00002,11.59999l1.39004,1.438z"/>
 </g>
</svg>