<svg width="17" height="11" viewBox="0 0 17 11" fill="none" xmlns="http://www.w3.org/2000/svg">
<path d="M11.7071 0.292894C11.3166 -0.097631 10.6834 -0.097631 10.2929 0.292894C9.90237 0.683418 9.90237 1.31658 10.2929 1.70711L11.7071 0.292894ZM16 6L16.6247 6.78087C16.8468 6.60318 16.9827 6.33931 16.9985 6.0553C17.0142 5.77129 16.9082 5.49402 16.7071 5.29289L16 6ZM10.3753 9.21913C9.94404 9.56414 9.87412 10.1934 10.2191 10.6247C10.5641 11.056 11.1934 11.1259 11.6247 10.7809L10.3753 9.21913ZM10.2929 1.70711L15.2929 6.70711L16.7071 5.29289L11.7071 0.292894L10.2929 1.70711ZM15.3753 5.21913L10.3753 9.21913L11.6247 10.7809L16.6247 6.78087L15.3753 5.21913Z" fill="#000000"/>
<path d="M1 5C0.447715 5 -4.82823e-08 5.44772 0 6C4.82823e-08 6.55229 0.447715 7 1 7L1 5ZM16 5L1 5L1 7L16 7L16 5Z" fill="#000000"/>
</svg>
