<svg width="18" height="14" viewBox="0 0 18 14" fill="none" xmlns="http://www.w3.org/2000/svg">
  <g clip-path="url(#clip0)">
    <path d="M17.8585 6.81897C17.7205 6.5345 17.5095 6.31645 17.227 6.16515C16.9441 6.01356 16.6329 5.93784 16.2935 5.93784H14.4831V4.45332C14.4831 3.88429 14.2756 3.39564 13.8608 2.9874C13.4458 2.57918 12.9491 2.3751 12.3709 2.3751H7.24152V2.07822C7.24152 1.50918 7.03402 1.02054 6.61925 0.612421C6.20431 0.204205 5.70773 0 5.12942 0H2.1121C1.53379 0 1.03718 0.204173 0.622274 0.612421C0.207403 1.02057 0 1.50921 0 2.07825V10.985C0 11.554 0.207403 12.0426 0.622274 12.4507C1.03718 12.859 1.53379 13.0633 2.1121 13.0633H12.3711C12.7921 13.0633 13.2321 12.9565 13.6912 12.743C14.1501 12.5297 14.5145 12.259 14.7848 11.9312L17.5665 8.56339C17.8556 8.20474 18 7.83376 18 7.45008C18.0001 7.22735 17.953 7.01726 17.8585 6.81897ZM1.207 2.07838C1.207 1.83106 1.29495 1.62071 1.47097 1.4475C1.64687 1.2744 1.86065 1.18776 2.11214 1.18776H5.12955C5.38104 1.18776 5.59468 1.2743 5.77071 1.4475C5.94664 1.62071 6.03469 1.83106 6.03469 2.07838V2.67222C6.03469 2.91971 6.12277 3.12999 6.2987 3.30309C6.47463 3.4762 6.68834 3.56287 6.9398 3.56287H12.371C12.6223 3.56287 12.8363 3.6495 13.0123 3.82261C13.1881 3.99568 13.2761 4.20603 13.2761 4.45349V5.93797H6.03466C5.60727 5.93797 5.1671 6.04469 4.71451 6.25809C4.26186 6.47149 3.89732 6.74206 3.62069 7.07004L1.207 9.99244V2.07838ZM16.6234 7.81209L13.8513 11.1799C13.6943 11.3716 13.4711 11.5355 13.1818 11.6714C12.8926 11.8075 12.6223 11.8756 12.3709 11.8756H2.1121C1.77894 11.8756 1.61239 11.7672 1.61239 11.5509C1.61239 11.4519 1.66896 11.3282 1.78214 11.1795L4.55427 7.81186C4.71771 7.62003 4.94232 7.45778 5.22843 7.32477C5.51437 7.19177 5.78313 7.12525 6.03462 7.12525H16.2935C16.6267 7.12525 16.7931 7.23356 16.7931 7.44998C16.7932 7.55543 16.7368 7.67596 16.6234 7.81209Z" fill="#000000"/>
  </g>
  <defs>
    <clipPath id="clip0">
      <rect width="18" height="13.0909" fill="white"/>
    </clipPath>
  </defs>
</svg>
