<svg width="16" height="13" viewBox="0 0 16 13" fill="none" xmlns="http://www.w3.org/2000/svg">
<path d="M4.95536 10.2054C3.38393 9.5 2.07143 8.29464 1.14286 6.85714C1.99107 5.54464 3.15179 4.41964 4.54464 3.70536C4.1875 4.3125 4 5.00893 4 5.71429C4 6.99107 4.61607 8.19643 5.65179 8.94643L4.95536 10.2054ZM8.42857 3.42857C8.42857 3.66071 8.23214 3.85714 8 3.85714C6.98214 3.85714 6.14286 4.6875 6.14286 5.71429C6.14286 5.94643 5.94643 6.14286 5.71429 6.14286C5.48214 6.14286 5.28571 5.94643 5.28571 5.71429C5.28571 4.22321 6.50893 3 8 3C8.23214 3 8.42857 3.19643 8.42857 3.42857ZM11.6696 1.72321C11.6696 1.625 11.6161 1.53571 11.5268 1.48214C11.3393 1.375 10.5 0.857142 10.3393 0.857142C10.2321 0.857142 10.1429 0.910714 10.0893 0.999999L9.60714 1.86607C9.08036 1.76786 8.53572 1.71428 8 1.71428C4.70536 1.71428 1.94643 3.52678 0.178571 6.24107C0.0625 6.41964 0 6.64286 0 6.85714C0 7.08036 0.0625 7.29464 0.178571 7.47321C1.20536 9.08036 2.66071 10.4196 4.39286 11.2054C4.30357 11.3571 4 11.8393 4 11.9821C4 12.0893 4.05357 12.1786 4.14286 12.2321C4.33036 12.3393 5.17857 12.8571 5.33929 12.8571C5.4375 12.8571 5.53571 12.8036 5.58929 12.7143L6.02679 11.9196C7.91071 8.55357 9.77679 5.16964 11.6607 1.80357C11.6696 1.78571 11.6696 1.74107 11.6696 1.72321ZM12 5.71429C12 5.46429 11.9732 5.21429 11.9286 4.96429L9.42857 9.44643C10.9732 8.85714 12 7.375 12 5.71429ZM16 6.85714C16 6.625 15.9375 6.4375 15.8214 6.24107C15.125 5.08929 14.0089 3.97321 12.9018 3.23214L12.3393 4.23214C13.3482 4.92857 14.1964 5.83036 14.8571 6.85714C13.4643 9.01786 11.2589 10.5982 8.66072 10.8214L8 12C10.6875 12 13.0982 10.7768 14.8482 8.76786C15.1964 8.36607 15.5446 7.92857 15.8214 7.47321C15.9375 7.27679 16 7.08929 16 6.85714Z" fill="#202944"/>
</svg>
