<svg width="120" height="33" viewBox="0 0 120 33" fill="none" xmlns="http://www.w3.org/2000/svg">
<path d="M10.196 26.288C6.236 26.288 3.068 25.22 0.692 23.084L1.844 20.816C3.092 21.872 4.364 22.628 5.66 23.084C6.98 23.54 8.504 23.768 10.232 23.768C12.272 23.768 13.844 23.372 14.948 22.58C16.052 21.788 16.604 20.672 16.604 19.232C16.604 18.392 16.34 17.708 15.812 17.18C15.284 16.652 14.588 16.232 13.724 15.92C12.86 15.608 11.696 15.284 10.232 14.948C8.264 14.492 6.644 14.012 5.372 13.508C4.124 13.004 3.104 12.284 2.312 11.348C1.544 10.412 1.16 9.188 1.16 7.676C1.16 6.236 1.532 4.964 2.276 3.86C3.044 2.732 4.124 1.868 5.516 1.268C6.932 0.643998 8.564 0.331998 10.412 0.331998C12.164 0.331998 13.796 0.607998 15.308 1.16C16.844 1.712 18.14 2.504 19.196 3.536L18.08 5.804C16.88 4.772 15.656 4.028 14.408 3.572C13.184 3.092 11.852 2.852 10.412 2.852C8.444 2.852 6.896 3.272 5.768 4.112C4.664 4.928 4.112 6.08 4.112 7.568C4.112 8.84 4.604 9.8 5.588 10.448C6.572 11.096 8.06 11.648 10.052 12.104C12.236 12.632 13.952 13.124 15.2 13.58C16.448 14.012 17.48 14.672 18.296 15.56C19.136 16.448 19.556 17.636 19.556 19.124C19.556 20.564 19.172 21.824 18.404 22.904C17.66 23.984 16.58 24.824 15.164 25.424C13.748 26 12.092 26.288 10.196 26.288ZM23.9188 8.468H26.8348V26H23.9188V8.468ZM27.1588 0.872V4.148H23.6308V0.872H27.1588ZM47.9819 8.468V24.812C47.9819 27.428 47.3099 29.396 45.9659 30.716C44.6219 32.06 42.6299 32.732 39.9899 32.732C36.9179 32.732 34.3379 31.94 32.2499 30.356L33.2219 28.196C34.3979 28.964 35.5019 29.516 36.5339 29.852C37.5659 30.188 38.7179 30.356 39.9899 30.356C41.6699 30.356 42.9419 29.9 43.8059 28.988C44.6699 28.1 45.1019 26.792 45.1019 25.064V21.968C44.5979 23.096 43.8179 23.96 42.7619 24.56C41.7299 25.16 40.5059 25.46 39.0899 25.46C37.5539 25.46 36.1859 25.1 34.9859 24.38C33.8099 23.66 32.8859 22.64 32.2139 21.32C31.5659 20 31.2419 18.476 31.2419 16.748C31.2419 15.02 31.5659 13.496 32.2139 12.176C32.8859 10.856 33.8099 9.836 34.9859 9.116C36.1859 8.396 37.5539 8.036 39.0899 8.036C40.4819 8.036 41.6939 8.336 42.7259 8.936C43.7579 9.536 44.5379 10.388 45.0659 11.492V8.468H47.9819ZM39.6659 23.048C41.3459 23.048 42.6659 22.496 43.6259 21.392C44.5859 20.264 45.0659 18.716 45.0659 16.748C45.0659 14.804 44.5859 13.28 43.6259 12.176C42.6899 11.048 41.3699 10.484 39.6659 10.484C37.9619 10.484 36.6179 11.048 35.6339 12.176C34.6739 13.28 34.1939 14.804 34.1939 16.748C34.1939 18.716 34.6739 20.264 35.6339 21.392C36.6179 22.496 37.9619 23.048 39.6659 23.048ZM62.1997 8.036C66.3997 8.036 68.4997 10.352 68.4997 14.984V26H65.5837V15.164C65.5837 13.532 65.2597 12.344 64.6117 11.6C63.9877 10.856 62.9797 10.484 61.5877 10.484C59.9797 10.484 58.6957 10.976 57.7357 11.96C56.7757 12.944 56.2957 14.276 56.2957 15.956V26H53.3797V8.468H56.2597V11.348C56.8357 10.268 57.6397 9.452 58.6717 8.9C59.7037 8.324 60.8797 8.036 62.1997 8.036ZM97.8819 8.468V26H95.0379V23.012C94.4859 24.068 93.7059 24.872 92.6979 25.424C91.7139 25.976 90.5979 26.252 89.3499 26.252C87.2619 26.252 85.6899 25.676 84.6339 24.524C83.5779 23.348 83.0499 21.62 83.0499 19.34V8.468H85.9659V19.268C85.9659 20.828 86.2779 21.98 86.9019 22.724C87.5259 23.444 88.5099 23.804 89.8539 23.804C91.3899 23.804 92.6259 23.312 93.5619 22.328C94.4979 21.32 94.9659 20 94.9659 18.368V8.468H97.8819ZM112.122 8.036C113.658 8.036 115.014 8.42 116.19 9.188C117.366 9.956 118.278 11.036 118.926 12.428C119.574 13.796 119.898 15.392 119.898 17.216C119.898 19.04 119.574 20.636 118.926 22.004C118.278 23.348 117.366 24.392 116.19 25.136C115.038 25.88 113.682 26.252 112.122 26.252C110.754 26.252 109.554 25.952 108.522 25.352C107.514 24.752 106.746 23.9 106.218 22.796V32.48H103.302V8.468H106.218V11.492C106.746 10.388 107.514 9.536 108.522 8.936C109.554 8.336 110.754 8.036 112.122 8.036ZM111.546 23.84C113.25 23.84 114.57 23.264 115.506 22.112C116.442 20.96 116.91 19.328 116.91 17.216C116.91 15.104 116.442 13.46 115.506 12.284C114.57 11.084 113.25 10.484 111.546 10.484C109.842 10.484 108.522 11.06 107.586 12.212C106.674 13.364 106.218 15.008 106.218 17.144C106.218 19.28 106.674 20.936 107.586 22.112C108.522 23.264 109.842 23.84 111.546 23.84Z" fill="url(#paint0_linear)"/>
<defs>
<linearGradient id="paint0_linear" x1="-12.7143" y1="-6.5" x2="39.4621" y2="78.9174" gradientUnits="userSpaceOnUse">
<stop stop-color="#5AABF5"/>
<stop offset="1" stop-color="#59FAF0"/>
</linearGradient>
</defs>
</svg>
