<svg width="13" height="15" viewBox="0 0 13 15" fill="none" xmlns="http://www.w3.org/2000/svg">
<path d="M5.5 5.89062C5.5 5.80859 5.44531 5.72656 5.39062 5.67188C5.33594 5.61719 5.25391 5.5625 5.17188 5.5625H4.51562C4.40625 5.5625 4.32422 5.61719 4.26953 5.67188C4.21484 5.72656 4.1875 5.80859 4.1875 5.89062V11.7969C4.1875 11.9062 4.21484 11.9883 4.26953 12.043C4.32422 12.0977 4.40625 12.125 4.51562 12.125H5.17188C5.25391 12.125 5.33594 12.0977 5.39062 12.043C5.44531 11.9883 5.5 11.9062 5.5 11.7969V5.89062ZM8.23438 5.5625C8.31641 5.5625 8.39844 5.61719 8.45312 5.67188C8.50781 5.72656 8.5625 5.80859 8.5625 5.89062V11.7969C8.5625 11.9062 8.50781 11.9883 8.45312 12.043C8.39844 12.0977 8.31641 12.125 8.23438 12.125H7.57812C7.46875 12.125 7.38672 12.0977 7.33203 12.043C7.27734 11.9883 7.25 11.9062 7.25 11.7969V5.89062C7.25 5.80859 7.27734 5.72656 7.33203 5.67188C7.38672 5.61719 7.46875 5.5625 7.57812 5.5625H8.23438ZM11.8438 2.9375H9.82031L8.89062 1.37891C8.75391 1.1875 8.58984 1.02344 8.39844 0.914062C8.17969 0.804688 7.96094 0.75 7.74219 0.75H5.00781C4.76172 0.75 4.54297 0.804688 4.35156 0.914062C4.13281 1.02344 3.96875 1.1875 3.85938 1.37891L2.92969 2.9375H0.90625C0.714844 2.9375 0.550781 3.01953 0.441406 3.12891C0.304688 3.26562 0.25 3.42969 0.25 3.59375V3.92188C0.25 4.03125 0.277344 4.11328 0.332031 4.16797C0.386719 4.22266 0.46875 4.25 0.578125 4.25H1.125V13.4375C1.125 13.8203 1.23438 14.1211 1.50781 14.3672C1.75391 14.6406 2.05469 14.75 2.4375 14.75H10.3125C10.668 14.75 10.9688 14.6406 11.2422 14.3672C11.4883 14.1211 11.625 13.8203 11.625 13.4375V4.25H12.1719C12.2539 4.25 12.3359 4.22266 12.3906 4.16797C12.4453 4.11328 12.5 4.03125 12.5 3.92188V3.59375C12.5 3.42969 12.418 3.26562 12.3086 3.12891C12.1719 3.01953 12.0078 2.9375 11.8438 2.9375ZM4.46094 2.9375L4.95312 2.14453C4.98047 2.08984 5.03516 2.0625 5.08984 2.0625H7.66016C7.71484 2.0625 7.74219 2.08984 7.79688 2.14453L8.28906 2.9375H4.46094ZM10.3125 4.25V13.2734C10.3125 13.3281 10.2852 13.3555 10.2578 13.3828C10.2031 13.4375 10.1758 13.4375 10.1484 13.4375H2.60156C2.54688 13.4375 2.51953 13.4375 2.49219 13.3828C2.4375 13.3555 2.4375 13.3281 2.4375 13.2734V4.25H10.3125Z" fill="#8A869D"/>
</svg>
